<?xml version="1.0" encoding="UTF-8"?>
<svg xmlns="http://www.w3.org/2000/svg" xmlns:xlink="http://www.w3.org/1999/xlink" width="px" height="px" viewBox="0 0 160 256" version="1.1">
<g id="surface1">
<path style=" stroke:none;fill-rule:nonzero;fill:rgb(0%,0%,0%);fill-opacity:1;" d="M 155.300781 75.300781 C 161.550781 69.050781 161.550781 58.898438 155.300781 52.648438 C 149.050781 46.398438 138.898438 46.398438 132.648438 52.648438 L 80 105.351562 L 27.300781 52.699219 C 21.050781 46.449219 10.898438 46.449219 4.648438 52.699219 C -1.601562 58.949219 -1.601562 69.101562 4.648438 75.351562 L 57.351562 128 L 4.699219 180.699219 C -1.550781 186.949219 -1.550781 197.101562 4.699219 203.351562 C 10.949219 209.601562 21.101562 209.601562 27.351562 203.351562 L 80 150.648438 L 132.699219 203.300781 C 138.949219 209.550781 149.101562 209.550781 155.351562 203.300781 C 161.601562 197.050781 161.601562 186.898438 155.351562 180.648438 L 102.648438 128 Z M 155.300781 75.300781 "/>
</g>
</svg>
