<?xml version="1.0" encoding="UTF-8"?>
<svg xmlns="http://www.w3.org/2000/svg" xmlns:xlink="http://www.w3.org/1999/xlink" width="20px" height="18px" viewBox="0 0 20 18" version="1.1">
<g id="surface1">
<path style=" stroke:none;fill-rule:nonzero;fill:rgb(0%,0%,0%);fill-opacity:1;" d="M 10 1.125 C 7.195312 1.125 4.949219 2.417969 3.3125 3.957031 C 1.6875 5.484375 0.601562 7.3125 0.0859375 8.566406 C -0.0273438 8.84375 -0.0273438 9.15625 0.0859375 9.433594 C 0.601562 10.6875 1.6875 12.515625 3.3125 14.042969 C 4.949219 15.582031 7.195312 16.875 10 16.875 C 12.804688 16.875 15.050781 15.582031 16.6875 14.042969 C 18.3125 12.511719 19.398438 10.6875 19.917969 9.433594 C 20.03125 9.15625 20.03125 8.84375 19.917969 8.566406 C 19.398438 7.3125 18.3125 5.484375 16.6875 3.957031 C 15.050781 2.417969 12.804688 1.125 10 1.125 Z M 15 9 C 15 11.796875 12.761719 14.0625 10 14.0625 C 7.238281 14.0625 5 11.796875 5 9 C 5 6.203125 7.238281 3.9375 10 3.9375 C 12.761719 3.9375 15 6.203125 15 9 Z M 10 6.75 C 10 7.992188 9.003906 9 7.777344 9 C 7.378906 9 7.003906 8.894531 6.679688 8.703125 C 6.671875 8.804688 6.667969 8.898438 6.667969 9 C 6.667969 10.863281 8.160156 12.375 10 12.375 C 11.839844 12.375 13.332031 10.863281 13.332031 9 C 13.332031 7.136719 11.839844 5.625 10 5.625 C 9.902344 5.625 9.804688 5.628906 9.707031 5.640625 C 9.890625 5.964844 10 6.34375 10 6.75 Z M 10 6.75 "/>
</g>
</svg>
