<?xml version="1.0" encoding="UTF-8"?>
<svg xmlns="http://www.w3.org/2000/svg" xmlns:xlink="http://www.w3.org/1999/xlink" width="188px" height="150px" viewBox="0 0 320 256" version="1.1">
<g id="surface1">
<path style=" stroke:none;fill-rule:nonzero;fill:rgb(0%,0%,0%);fill-opacity:1;" d="M 211.648438 220.351562 C 211.648438 233 201.5 243.148438 188.851562 243.148438 C 176.199219 243.148438 165.949219 233 165.949219 220.351562 C 165.949219 207.699219 176.25 197.449219 188.851562 197.449219 C 201.550781 197.449219 211.648438 207.699219 211.648438 220.351562 Z M 84.699219 197.449219 C 72.050781 197.449219 61.898438 207.75 61.898438 220.351562 C 61.898438 232.949219 72.050781 243.148438 84.699219 243.148438 C 97.351562 243.148438 107.601562 233 107.601562 220.351562 C 107.601562 207.699219 97.351562 197.449219 84.699219 197.449219 Z M 230.550781 62.449219 C 79.449219 62.449219 40.949219 56.050781 0 12.851562 C 17.199219 38.699219 26.648438 87.300781 186.550781 84.949219 C 353.199219 82.449219 251.550781 128 221.949219 179.398438 C 315.300781 96.050781 381.648438 62.449219 230.550781 62.449219 Z M 230.550781 62.449219 "/>
</g>
</svg>
